<svg width="512" height="512" viewBox="0 0 512 512" fill="none" xmlns="http://www.w3.org/2000/svg">
<path d="M256.629 362.05L101.2 498.05C90.4572 507.45 73.0857 507.45 62.4572 498.05L36.6286 475.45C25.8857 466.05 25.8857 450.85 36.6286 441.55L146.8 345.15L36.6286 248.75C25.8857 239.35 25.8857 224.15 36.6286 214.85L62.3429 192.05C73.0857 182.65 90.4571 182.65 101.086 192.05L256.514 328.05C267.371 337.45 267.371 352.65 256.629 362.05ZM476.057 328.05L320.629 192.05C309.886 182.65 292.514 182.65 281.886 192.05L256.057 214.65C245.314 224.05 245.314 239.25 256.057 248.55L366.229 344.95L256.057 441.35C245.314 450.75 245.314 465.95 256.057 475.25L281.886 497.85C292.629 507.25 310 507.25 320.629 497.85L476.057 361.85C486.8 352.65 486.8 337.45 476.057 328.05Z" fill="black"/>
<rect x="192" y="8" width="64" height="160" rx="10" fill="black"/>
<rect x="304" y="56" width="64" height="160" rx="10" transform="rotate(90 304 56)" fill="black"/>
</svg>
